<svg xmlns="http://www.w3.org/2000/svg" xmlns:xlink="http://www.w3.org/1999/xlink" version="1.1" width="256" height="256" viewBox="0 0 256 256" xml:space="preserve">
<desc>Created with Fabric.js 1.7.22</desc>
<defs>
</defs>
<g transform="translate(128 128) scale(0.97 0.97)" style="">
	<g style="stroke: none; stroke-width: 0; stroke-dasharray: none; stroke-linecap: butt; stroke-linejoin: miter; stroke-miterlimit: 10; fill: none; fill-rule: nonzero; opacity: 1;" transform="translate(-130.05 -130.05000000000004) scale(2.89 2.89)" >
	<path d="M 62.63 50.626 V 33.864 V 17.63 C 62.63 7.893 54.737 0 45 0 h 0 c -9.737 0 -17.63 7.893 -17.63 17.63 v 16.234 v 16.763 L 45 57.871 L 62.63 50.626 z" style="stroke: none; stroke-width: 1; stroke-dasharray: none; stroke-linecap: butt; stroke-linejoin: miter; stroke-miterlimit: 10; fill: rgb(63,35,27); fill-rule: nonzero; opacity: 1;" transform=" matrix(1 0 0 1 0 0) " stroke-linecap="round" />
	<path d="M 60.326 50.205 l 4.01 0.733 c 3.644 0.666 6.292 3.842 6.292 7.546 v 29.211 c 0 1.273 -1.032 2.304 -2.304 2.304 H 45 H 21.677 c -1.273 0 -2.304 -1.032 -2.304 -2.304 V 58.484 c 0 -3.705 2.648 -6.88 6.292 -7.546 l 4.01 -0.733 l 15.299 7.064 L 60.326 50.205 z" style="stroke: none; stroke-width: 1; stroke-dasharray: none; stroke-linecap: butt; stroke-linejoin: miter; stroke-miterlimit: 10; fill: rgb(116,11,8); fill-rule: nonzero; opacity: 1;" transform=" matrix(1 0 0 1 0 0) " stroke-linecap="round" />
	<path d="M 45 67.175 c 5.185 -5.557 8.724 -11.684 9.963 -18.608 l -0.003 0.004 c -0.062 -0.048 -0.123 -0.098 -0.183 -0.149 c -1.224 -1.042 -1.984 -2.592 -1.984 -4.293 v -1.47 c -5.196 -5.687 -10.392 -5.687 -15.588 0 v 1.47 c 0 1.784 -0.836 3.402 -2.166 4.442 l -0.003 -0.004 C 35.574 55.06 39.461 61.204 45 67.175" style="stroke: none; stroke-width: 1; stroke-dasharray: none; stroke-linecap: butt; stroke-linejoin: miter; stroke-miterlimit: 10; fill: rgb(229,197,168); fill-rule: nonzero; opacity: 1;" transform=" matrix(1 0 0 1 0 0) " stroke-linecap="round" />
	<path d="M 54.961 48.571 c 0.699 0.546 1.534 0.934 2.456 1.102 l 2.908 0.532 l 0 0 l 3.046 8.219 l -4.702 0 c -5.399 3.7 -7.731 4.916 -13.67 8.751 L 54.961 48.571 z" style="stroke: none; stroke-width: 1; stroke-dasharray: none; stroke-linecap: butt; stroke-linejoin: miter; stroke-miterlimit: 10; fill: rgb(150,148,162); fill-rule: nonzero; opacity: 1;" transform=" matrix(1 0 0 1 0 0) " stroke-linecap="round" />
	<path d="M 60.075 21.457 l -0.74 8.845 c -0.175 2.088 -0.708 4.088 -1.546 5.931 c -0.453 0.996 -0.995 1.945 -1.617 2.838 c -0.622 0.892 -1.325 1.727 -2.1 2.494 c -1.815 1.797 -4.026 3.217 -6.522 4.119 l 0 0 c -1.648 0.596 -3.453 0.596 -5.101 0 l 0 0 c -6.597 -2.384 -11.2 -8.392 -11.784 -15.381 l -0.793 -9.485 c 9.647 -1.297 16.369 -3.372 20.228 -7.291 C 53.084 17.065 55.717 19.122 60.075 21.457 z" style="stroke: none; stroke-width: 1; stroke-dasharray: none; stroke-linecap: butt; stroke-linejoin: miter; stroke-miterlimit: 10; fill: rgb(224,186,150); fill-rule: nonzero; opacity: 1;" transform=" matrix(1 0 0 1 0 0) " stroke-linecap="round" />
	<path d="M 36.072 25.095 c 0.283 -0.608 0.743 -1.01 1.263 -1.305 c 0.524 -0.285 1.124 -0.433 1.726 -0.434 c 0.602 -0.002 1.202 0.147 1.727 0.432 c 0.521 0.295 0.981 0.698 1.262 1.308 c -0.65 0.164 -1.164 0.206 -1.647 0.254 c -0.478 0.037 -0.911 0.054 -1.342 0.051 c -0.432 0 -0.864 -0.017 -1.343 -0.054 C 37.235 25.298 36.721 25.258 36.072 25.095 z" style="stroke: none; stroke-width: 1; stroke-dasharray: none; stroke-linecap: butt; stroke-linejoin: miter; stroke-miterlimit: 10; fill: rgb(63,35,27); fill-rule: nonzero; opacity: 1;" transform=" matrix(1 0 0 1 0 0) " stroke-linecap="round" />
	<path d="M 47.437 25.095 c 0.283 -0.608 0.743 -1.01 1.263 -1.305 c 0.524 -0.285 1.124 -0.433 1.726 -0.434 c 0.602 -0.002 1.202 0.147 1.727 0.432 c 0.521 0.295 0.981 0.698 1.262 1.308 c -0.65 0.164 -1.164 0.206 -1.647 0.254 c -0.478 0.037 -0.911 0.054 -1.342 0.051 c -0.432 0 -0.864 -0.017 -1.343 -0.054 C 48.6 25.298 48.086 25.258 47.437 25.095 z" style="stroke: none; stroke-width: 1; stroke-dasharray: none; stroke-linecap: butt; stroke-linejoin: miter; stroke-miterlimit: 10; fill: rgb(63,35,27); fill-rule: nonzero; opacity: 1;" transform=" matrix(1 0 0 1 0 0) " stroke-linecap="round" />
	<path d="M 41.066 36.503 c 0.834 0.211 1.515 0.47 2.163 0.629 c 0.642 0.17 1.212 0.255 1.768 0.259 c 0.556 -0.008 1.127 -0.094 1.769 -0.264 c 0.648 -0.16 1.33 -0.417 2.167 -0.623 c -0.244 0.824 -0.743 1.505 -1.417 2.046 c -0.673 0.531 -1.574 0.886 -2.517 0.887 c -0.943 -0.001 -1.846 -0.354 -2.519 -0.886 C 41.808 38.008 41.309 37.326 41.066 36.503 z" style="stroke: none; stroke-width: 1; stroke-dasharray: none; stroke-linecap: butt; stroke-linejoin: miter; stroke-miterlimit: 10; fill: rgb(63,35,27); fill-rule: nonzero; opacity: 1;" transform=" matrix(1 0 0 1 0 0) " stroke-linecap="round" />
	<polygon points="46,90 43.95,90 43.95,66.31 45,67.17 46,66.41 " style="stroke: none; stroke-width: 1; stroke-dasharray: none; stroke-linecap: butt; stroke-linejoin: miter; stroke-miterlimit: 10; fill: rgb(150,148,162); fill-rule: nonzero; opacity: 1;" transform="  matrix(1 0 0 1 0 0) "/>
	<path d="M 29.674 50.205 l -3.046 8.219 l 4.702 0 c 5.399 3.7 7.731 4.916 13.67 8.751 l -9.963 -18.608 l 0.003 0.004 c -0.699 0.547 -1.534 0.934 -2.457 1.103 L 29.674 50.205" style="stroke: none; stroke-width: 1; stroke-dasharray: none; stroke-linecap: butt; stroke-linejoin: miter; stroke-miterlimit: 10; fill: rgb(150,148,162); fill-rule: nonzero; opacity: 1;" transform=" matrix(1 0 0 1 0 0) " stroke-linecap="round" />
	<path d="M 60.031 89.57 C 60.031 89.57 60.031 89.57 60.031 89.57 l 0 -22.747 c 0 -0.578 -0.468 -1.045 -1.045 -1.045 c -0.578 0 -1.045 0.468 -1.045 1.045 V 89.57 c 0 0 0 0 0 0 H 60.031 z" style="stroke: none; stroke-width: 1; stroke-dasharray: none; stroke-linecap: butt; stroke-linejoin: miter; stroke-miterlimit: 10; fill: rgb(14,13,16); fill-rule: nonzero; opacity: 1;" transform=" matrix(1 0 0 1 0 0) " stroke-linecap="round" />
	<path d="M 32.059 89.57 C 32.059 89.57 32.059 89.57 32.059 89.57 l 0 -22.747 c 0 -0.578 -0.468 -1.045 -1.045 -1.045 s -1.045 0.468 -1.045 1.045 V 89.57 c 0 0 0 0 0 0 H 32.059 z" style="stroke: none; stroke-width: 1; stroke-dasharray: none; stroke-linecap: butt; stroke-linejoin: miter; stroke-miterlimit: 10; fill: rgb(14,13,16); fill-rule: nonzero; opacity: 1;" transform=" matrix(1 0 0 1 0 0) " stroke-linecap="round" />
</g>
</g>
</svg>